<svg width="288" height="24" viewBox="0 0 288 24" fill="none" xmlns="http://www.w3.org/2000/svg">
<path d="M2.32 23.124H9.352L9.856 21.96L9.292 20.268L8.704 22.008H1.948L2.32 23.124ZM23.284 23.124L23.788 21.96L23.224 20.268L22.648 22.008H13.144L13.516 23.124H23.284ZM1.612 21H7.972L8.776 18.588C8.552 18.844 8.264 19.012 7.912 19.092C7.568 19.164 7.248 19.14 6.952 19.02C6.656 18.9 6.436 18.676 6.292 18.348C6.148 18.012 6.168 17.56 6.352 16.992L7.108 14.7H13.708L14.464 16.992C14.6 17.368 14.656 17.696 14.632 17.976C14.608 18.248 14.528 18.472 14.392 18.648C14.264 18.816 14.096 18.94 13.888 19.02C13.68 19.1 13.46 19.136 13.228 19.128C13.004 19.12 12.78 19.072 12.556 18.984C12.34 18.888 12.156 18.756 12.004 18.588L12.808 21H21.904L22.708 18.588C22.468 18.844 22.184 19.012 21.856 19.092C21.528 19.164 21.2 19.14 20.872 19.02C20.544 18.9 20.236 18.676 19.948 18.348C19.668 18.012 19.452 17.56 19.3 16.992L15.244 4.812C15.124 4.468 15.084 4.172 15.124 3.924C15.164 3.676 15.256 3.48 15.4 3.336C15.544 3.184 15.728 3.076 15.952 3.012C16.176 2.948 16.408 2.924 16.648 2.94C16.888 2.948 17.124 2.996 17.356 3.084C17.588 3.164 17.784 3.276 17.944 3.42L16.96 0.48H6.328L5.344 3.42C5.504 3.276 5.696 3.164 5.92 3.084C6.144 2.996 6.372 2.948 6.604 2.94C6.836 2.924 7.056 2.948 7.264 3.012C7.472 3.076 7.644 3.184 7.78 3.336C7.924 3.48 8.02 3.676 8.068 3.924C8.116 4.172 8.088 4.468 7.984 4.812L3.928 16.992C3.712 17.56 3.472 18.012 3.208 18.348C2.952 18.676 2.688 18.9 2.416 19.02C2.144 19.14 1.868 19.164 1.588 19.092C1.316 19.012 1.056 18.844 0.808 18.588L1.612 21ZM8.224 17.904L8.68 16.536H13.324L13.024 15.612H7.792L7.024 17.904H8.224ZM21.328 16.992L17.56 5.688C17.424 5.312 17.4 5.068 17.488 4.956C17.576 4.844 17.728 4.816 17.944 4.872C18.168 4.92 18.432 5.024 18.736 5.184C19.04 5.344 19.336 5.512 19.624 5.688C19.92 5.864 20.18 6.024 20.404 6.168C20.636 6.304 20.788 6.372 20.86 6.372L19.3 1.692L18.052 1.068L19.3 4.812C19.276 4.788 19.204 4.744 19.084 4.68C18.964 4.608 18.816 4.532 18.64 4.452C18.464 4.364 18.268 4.28 18.052 4.2C17.844 4.12 17.636 4.06 17.428 4.02C17.22 3.972 17.028 3.952 16.852 3.96C16.676 3.96 16.532 4.004 16.42 4.092C16.316 4.18 16.252 4.316 16.228 4.5C16.212 4.684 16.264 4.936 16.384 5.256L20.296 16.992C20.424 17.392 20.576 17.692 20.752 17.892C20.928 18.092 21.08 18.192 21.208 18.192C21.336 18.192 21.42 18.092 21.46 17.892C21.5 17.692 21.456 17.392 21.328 16.992ZM12.892 12.264H7.924L10.408 4.812L12.892 12.264ZM9.208 11.364H10.408L11.008 9.564L10.408 7.764L9.208 11.364ZM6.292 6.372C6.572 5.764 6.756 5.292 6.844 4.956C6.932 4.612 6.96 4.364 6.928 4.212C6.896 4.052 6.824 3.968 6.712 3.96C6.6 3.952 6.48 3.98 6.352 4.044C6.232 4.1 6.124 4.172 6.028 4.26C5.932 4.348 5.884 4.408 5.884 4.44C6.148 4.528 6.328 4.652 6.424 4.812C6.52 4.964 6.568 5.136 6.568 5.328C6.568 5.512 6.536 5.696 6.472 5.88C6.408 6.064 6.348 6.228 6.292 6.372ZM25.641 23.124H35.085L35.589 21.948L35.025 20.256L34.437 22.008H25.269L25.641 23.124ZM46.893 23.124L47.409 21.948L46.845 20.256L46.245 22.008H36.897L37.269 23.124H46.893ZM33.525 0.48H25.113L24.129 3.432C24.289 3.28 24.485 3.168 24.717 3.096C24.949 3.016 25.189 2.98 25.437 2.988C25.693 2.996 25.945 3.048 26.193 3.144C26.441 3.232 26.661 3.368 26.853 3.552C27.053 3.728 27.213 3.952 27.333 4.224C27.461 4.488 27.525 4.8 27.525 5.16V17.256C27.525 17.56 27.461 17.832 27.333 18.072C27.213 18.312 27.053 18.516 26.853 18.684C26.661 18.852 26.441 18.98 26.193 19.068C25.945 19.156 25.693 19.2 25.437 19.2C25.189 19.192 24.949 19.14 24.717 19.044C24.485 18.94 24.289 18.788 24.129 18.588L24.933 21H33.705L34.509 18.588C34.261 18.892 33.969 19.08 33.633 19.152C33.297 19.224 32.977 19.196 32.673 19.068C32.369 18.94 32.113 18.72 31.905 18.408C31.697 18.096 31.593 17.712 31.593 17.256V12.096H38.817V17.256C38.817 17.712 38.701 18.096 38.469 18.408C38.245 18.72 37.973 18.94 37.653 19.068C37.333 19.196 36.997 19.224 36.645 19.152C36.293 19.08 35.997 18.892 35.757 18.588L36.561 21H45.525L46.329 18.588C46.161 18.788 45.961 18.94 45.729 19.044C45.497 19.14 45.253 19.192 44.997 19.2C44.749 19.2 44.501 19.156 44.253 19.068C44.005 18.98 43.781 18.852 43.581 18.684C43.389 18.516 43.229 18.312 43.101 18.072C42.981 17.832 42.921 17.56 42.921 17.256V5.16C42.921 4.8 42.981 4.488 43.101 4.224C43.229 3.952 43.389 3.728 43.581 3.552C43.781 3.368 44.005 3.232 44.253 3.144C44.501 3.048 44.749 2.996 44.997 2.988C45.253 2.98 45.497 3.016 45.729 3.096C45.961 3.168 46.161 3.28 46.329 3.432L45.345 0.48H36.729L35.757 3.432C35.997 3.2 36.293 3.06 36.645 3.012C36.997 2.956 37.333 3 37.653 3.144C37.973 3.28 38.245 3.516 38.469 3.852C38.701 4.188 38.817 4.624 38.817 5.16V9.696H31.593V5.16C31.601 4.624 31.709 4.188 31.917 3.852C32.133 3.516 32.389 3.28 32.685 3.144C32.989 3 33.305 2.956 33.633 3.012C33.969 3.06 34.261 3.2 34.509 3.432L33.525 0.48ZM33.477 18.288V13.932H37.905V12.972H32.529V17.256C32.529 17.424 32.565 17.576 32.637 17.712C32.709 17.84 32.793 17.948 32.889 18.036C32.993 18.116 33.097 18.18 33.201 18.228C33.313 18.268 33.405 18.288 33.477 18.288ZM44.793 18.288V5.664C44.793 5.296 44.897 5.056 45.105 4.944C45.321 4.832 45.589 4.8 45.909 4.848C46.229 4.896 46.577 5.004 46.953 5.172C47.337 5.332 47.693 5.5 48.021 5.676C48.349 5.852 48.629 6.008 48.861 6.144C49.093 6.28 49.225 6.348 49.257 6.348L47.697 1.668L46.437 1.044L47.697 4.812C47.521 4.66 47.305 4.516 47.049 4.38C46.793 4.236 46.521 4.12 46.233 4.032C45.945 3.944 45.657 3.892 45.369 3.876C45.089 3.852 44.833 3.888 44.601 3.984C44.377 4.08 44.193 4.244 44.049 4.476C43.905 4.708 43.833 5.024 43.833 5.424V17.256C43.833 17.432 43.869 17.588 43.941 17.724C44.021 17.852 44.109 17.96 44.205 18.048C44.309 18.128 44.413 18.188 44.517 18.228C44.629 18.268 44.721 18.288 44.793 18.288ZM33.477 8.784V5.664C33.477 5.368 33.501 5.14 33.549 4.98C33.605 4.82 33.669 4.712 33.741 4.656C33.821 4.6 33.905 4.584 33.993 4.608C34.081 4.624 34.161 4.664 34.233 4.728C34.313 4.784 34.377 4.856 34.425 4.944C34.481 5.024 34.509 5.096 34.509 5.16C34.509 4.936 34.461 4.732 34.365 4.548C34.269 4.356 34.145 4.204 33.993 4.092C33.849 3.98 33.689 3.912 33.513 3.888C33.345 3.856 33.185 3.888 33.033 3.984C32.889 4.072 32.769 4.236 32.673 4.476C32.577 4.708 32.529 5.024 32.529 5.424V8.784H33.477ZM26.613 6.348C26.661 5.788 26.645 5.34 26.565 5.004C26.493 4.66 26.385 4.4 26.241 4.224C26.097 4.048 25.933 3.94 25.749 3.9C25.565 3.86 25.393 3.86 25.233 3.9C25.073 3.94 24.937 4.012 24.825 4.116C24.713 4.212 24.657 4.312 24.657 4.416L25.281 5.664C25.465 5.432 25.637 5.308 25.797 5.292C25.965 5.268 26.109 5.308 26.229 5.412C26.357 5.508 26.453 5.648 26.517 5.832C26.589 6.008 26.621 6.18 26.613 6.348ZM37.905 6.024C37.953 5.52 37.945 5.12 37.881 4.824C37.825 4.52 37.737 4.296 37.617 4.152C37.497 4 37.357 3.912 37.197 3.888C37.045 3.864 36.901 3.876 36.765 3.924C36.629 3.972 36.513 4.044 36.417 4.14C36.329 4.236 36.285 4.328 36.285 4.416L36.777 5.424C36.937 5.256 37.085 5.168 37.221 5.16C37.365 5.144 37.489 5.176 37.593 5.256C37.697 5.328 37.777 5.436 37.833 5.58C37.889 5.724 37.913 5.872 37.905 6.024ZM59.6573 23.124L60.1613 21.96L59.5973 20.256L59.0093 22.008H50.9213L51.2933 23.124H59.6573ZM65.4893 21L64.6733 18.552L63.3773 22.008H60.9893L61.3613 23.124H63.7853L65.4893 21ZM66.9773 23.124H77.0453L77.5493 21.948L76.9853 20.256L76.4093 22.008H66.6053L66.9773 23.124ZM75.4853 0.48H65.1293L64.1333 3.444C64.3013 3.276 64.5013 3.152 64.7333 3.072C64.9733 2.984 65.2133 2.94 65.4533 2.94C65.7013 2.932 65.9373 2.972 66.1613 3.06C66.3853 3.14 66.5653 3.268 66.7013 3.444C66.8453 3.62 66.9333 3.844 66.9653 4.116C66.9973 4.38 66.9413 4.692 66.7973 5.052L63.2093 14.616L60.2213 5.052C60.0933 4.692 60.0453 4.38 60.0773 4.116C60.1173 3.844 60.2093 3.62 60.3533 3.444C60.4973 3.268 60.6813 3.14 60.9053 3.06C61.1293 2.972 61.3613 2.932 61.6013 2.94C61.8413 2.94 62.0773 2.984 62.3093 3.072C62.5413 3.152 62.7413 3.276 62.9093 3.444L61.9253 0.48H50.7653L49.7813 3.444C49.9413 3.276 50.1373 3.152 50.3693 3.072C50.6093 2.984 50.8573 2.94 51.1133 2.94C51.3693 2.932 51.6213 2.972 51.8693 3.06C52.1253 3.14 52.3533 3.268 52.5533 3.444C52.7533 3.62 52.9133 3.844 53.0333 4.116C53.1613 4.38 53.2253 4.692 53.2253 5.052V16.68C53.2253 17.112 53.1613 17.484 53.0333 17.796C52.9133 18.108 52.7533 18.364 52.5533 18.564C52.3533 18.764 52.1253 18.912 51.8693 19.008C51.6213 19.104 51.3693 19.152 51.1133 19.152C50.8573 19.144 50.6093 19.096 50.3693 19.008C50.1373 18.912 49.9413 18.772 49.7813 18.588L50.5853 21H58.2773L59.0813 18.588C58.9053 18.772 58.6893 18.912 58.4333 19.008C58.1853 19.096 57.9213 19.144 57.6413 19.152C57.3613 19.152 57.0853 19.104 56.8133 19.008C56.5413 18.912 56.2933 18.764 56.0693 18.564C55.8533 18.364 55.6773 18.108 55.5413 17.796C55.4053 17.484 55.3373 17.112 55.3373 16.68V5.052L60.6533 21H62.9093L68.8973 5.052V16.68C68.8973 17.112 68.8373 17.484 68.7173 17.796C68.6053 18.108 68.4533 18.364 68.2613 18.564C68.0693 18.764 67.8493 18.912 67.6013 19.008C67.3613 19.104 67.1133 19.152 66.8573 19.152C66.6093 19.144 66.3613 19.096 66.1133 19.008C65.8733 18.912 65.6573 18.772 65.4653 18.588L66.2693 21H75.6653L76.4693 18.588C76.3013 18.772 76.0973 18.912 75.8573 19.008C75.6253 19.096 75.3813 19.144 75.1253 19.152C74.8693 19.152 74.6133 19.104 74.3573 19.008C74.1013 18.912 73.8693 18.764 73.6613 18.564C73.4613 18.364 73.2973 18.108 73.1693 17.796C73.0413 17.484 72.9773 17.112 72.9773 16.68V5.052C72.9773 4.692 73.0413 4.38 73.1693 4.116C73.2973 3.844 73.4613 3.62 73.6613 3.444C73.8693 3.268 74.1013 3.14 74.3573 3.06C74.6133 2.972 74.8693 2.932 75.1253 2.94C75.3813 2.94 75.6253 2.984 75.8573 3.072C76.0973 3.152 76.3013 3.276 76.4693 3.444L75.4853 0.48ZM65.1293 17.34C65.1293 17.412 65.1973 17.508 65.3333 17.628C65.4773 17.74 65.6573 17.844 65.8733 17.94C66.0893 18.036 66.3173 18.104 66.5573 18.144C66.8053 18.184 67.0373 18.168 67.2533 18.096C67.4693 18.024 67.6453 17.88 67.7813 17.664C67.9253 17.44 67.9973 17.112 67.9973 16.68V9.696L65.1293 17.34ZM73.8893 16.68C73.8893 16.848 73.8933 17.02 73.9013 17.196C73.9093 17.372 73.9413 17.532 73.9973 17.676C74.0613 17.82 74.1573 17.94 74.2853 18.036C74.4213 18.132 74.6093 18.18 74.8493 18.18V5.736C74.8493 5.352 74.9573 5.104 75.1733 4.992C75.3893 4.872 75.6613 4.836 75.9893 4.884C76.3253 4.924 76.6853 5.024 77.0693 5.184C77.4533 5.344 77.8133 5.512 78.1493 5.688C78.4853 5.856 78.7693 6.008 79.0013 6.144C79.2333 6.28 79.3613 6.348 79.3853 6.348L77.8253 1.68L76.5893 1.068L77.8253 4.776C77.7213 4.672 77.5533 4.56 77.3213 4.44C77.0893 4.312 76.8253 4.2 76.5293 4.104C76.2413 4.008 75.9413 3.944 75.6293 3.912C75.3173 3.872 75.0333 3.892 74.7773 3.972C74.5213 4.052 74.3093 4.204 74.1413 4.428C73.9733 4.652 73.8893 4.972 73.8893 5.388V16.68ZM56.2253 16.68C56.2253 16.848 56.2293 17.02 56.2373 17.196C56.2453 17.372 56.2773 17.532 56.3333 17.676C56.3973 17.82 56.4933 17.94 56.6213 18.036C56.7573 18.132 56.9453 18.18 57.1853 18.18V13.02L56.2253 10.152V16.68ZM63.7853 9.96L62.4653 5.736C62.3613 5.44 62.2973 5.212 62.2733 5.052C62.2573 4.884 62.2653 4.768 62.2973 4.704C62.3293 4.64 62.3773 4.612 62.4413 4.62C62.5133 4.628 62.5813 4.66 62.6453 4.716C62.7173 4.764 62.7773 4.82 62.8253 4.884C62.8813 4.948 62.9093 5.004 62.9093 5.052C62.9093 4.892 62.8493 4.732 62.7293 4.572C62.6173 4.404 62.4813 4.264 62.3213 4.152C62.1613 4.04 61.9933 3.964 61.8173 3.924C61.6413 3.876 61.4933 3.892 61.3733 3.972C61.2613 4.044 61.1933 4.196 61.1693 4.428C61.1453 4.652 61.2013 4.972 61.3373 5.388L63.2093 11.376L63.7853 9.96ZM65.1293 5.388C65.2573 5.236 65.3493 5.156 65.4053 5.148C65.4693 5.14 65.5013 5.184 65.5013 5.28C65.5013 5.376 65.4693 5.52 65.4053 5.712C65.3413 5.896 65.2493 6.108 65.1293 6.348C65.4653 5.772 65.6853 5.312 65.7893 4.968C65.9013 4.624 65.9373 4.368 65.8973 4.2C65.8653 4.032 65.7813 3.936 65.6453 3.912C65.5173 3.88 65.3813 3.892 65.2373 3.948C65.0933 3.996 64.9613 4.072 64.8413 4.176C64.7293 4.272 64.6733 4.36 64.6733 4.44L65.1293 5.388ZM50.9573 5.736C51.1253 5.496 51.2893 5.364 51.4493 5.34C51.6093 5.316 51.7533 5.356 51.8813 5.46C52.0093 5.556 52.1093 5.692 52.1813 5.868C52.2613 6.036 52.2973 6.196 52.2893 6.348C52.3453 5.772 52.3333 5.312 52.2533 4.968C52.1813 4.624 52.0693 4.368 51.9173 4.2C51.7733 4.032 51.6053 3.936 51.4133 3.912C51.2293 3.88 51.0533 3.892 50.8853 3.948C50.7253 3.996 50.5893 4.072 50.4773 4.176C50.3653 4.272 50.3093 4.36 50.3093 4.44L50.9573 5.736ZM81.4222 23.124H99.2182V16.104L98.2702 15.468V22.008H81.0502L81.4222 23.124ZM87.4462 16.884V13.068C87.4462 12.764 87.5142 12.512 87.6502 12.312C87.7862 12.104 87.9542 11.948 88.1542 11.844C88.3622 11.74 88.5822 11.688 88.8142 11.688C89.0542 11.688 89.2742 11.74 89.4742 11.844C89.6822 11.948 89.8542 12.104 89.9902 12.312C90.1262 12.512 90.1942 12.764 90.1942 13.068V14.88L92.0062 13.068V7.812L90.1942 6V7.812C90.1942 8.124 90.1262 8.384 89.9902 8.592C89.8542 8.792 89.6822 8.944 89.4742 9.048C89.2742 9.144 89.0542 9.192 88.8142 9.192C88.5822 9.192 88.3622 9.14 88.1542 9.036C87.9542 8.932 87.7862 8.78 87.6502 8.58C87.5142 8.372 87.4462 8.112 87.4462 7.8V5.316C87.4462 4.876 87.5582 4.496 87.7822 4.176C88.0142 3.848 88.3142 3.584 88.6822 3.384C89.0582 3.176 89.4782 3.036 89.9422 2.964C90.4062 2.884 90.8742 2.876 91.3462 2.94C91.8182 2.996 92.2702 3.128 92.7022 3.336C93.1342 3.536 93.5022 3.812 93.8062 4.164C94.1182 4.516 94.3422 4.948 94.4782 5.46C94.6142 5.972 94.6182 6.568 94.4902 7.248L97.3822 5.316V0.48H80.8942L79.9102 3.456C80.0702 3.264 80.2662 3.128 80.4982 3.048C80.7382 2.96 80.9862 2.924 81.2422 2.94C81.4982 2.948 81.7502 3.008 81.9982 3.12C82.2542 3.224 82.4822 3.38 82.6822 3.588C82.8822 3.788 83.0422 4.032 83.1622 4.32C83.2902 4.608 83.3542 4.94 83.3542 5.316V16.884C83.3542 17.3 83.2902 17.656 83.1622 17.952C83.0422 18.24 82.8822 18.476 82.6822 18.66C82.4822 18.844 82.2542 18.98 81.9982 19.068C81.7502 19.148 81.4982 19.18 81.2422 19.164C80.9862 19.148 80.7382 19.092 80.4982 18.996C80.2662 18.892 80.0702 18.752 79.9102 18.576L80.7142 21H97.3822V14.88L94.4902 12.948C94.9622 13.748 95.2222 14.468 95.2702 15.108C95.3182 15.748 95.2222 16.308 94.9822 16.788C94.7422 17.268 94.3862 17.668 93.9142 17.988C93.4502 18.3 92.9382 18.536 92.3782 18.696C91.8262 18.856 91.2582 18.94 90.6742 18.948C90.0902 18.948 89.5582 18.872 89.0782 18.72C88.5982 18.568 88.2062 18.34 87.9022 18.036C87.5982 17.724 87.4462 17.34 87.4462 16.884ZM89.2822 13.068C89.2822 12.9 89.2342 12.772 89.1382 12.684C89.0422 12.596 88.9342 12.552 88.8142 12.552C88.6942 12.552 88.5862 12.596 88.4902 12.684C88.3942 12.772 88.3462 12.9 88.3462 13.068V16.884C88.3462 17.068 88.3742 17.22 88.4302 17.34C88.4862 17.46 88.5582 17.556 88.6462 17.628C88.7422 17.7 88.8422 17.752 88.9462 17.784C89.0582 17.808 89.1702 17.82 89.2822 17.82V13.068ZM93.8542 13.572V9.66L92.9062 8.712V13.344L91.3702 14.88H92.5462L93.8542 13.572ZM99.2182 6V1.428L98.2702 0.947999V5.688L95.9422 7.248H97.3462L99.2182 6ZM89.2822 6C89.2822 5.696 89.3862 5.44 89.5942 5.232C89.8022 5.024 90.0622 4.872 90.3742 4.776C90.6942 4.672 91.0342 4.62 91.3942 4.62C91.7622 4.62 92.1022 4.672 92.4142 4.776C92.7342 4.872 92.9982 5.024 93.2062 5.232C93.4142 5.44 93.5182 5.696 93.5182 6C93.5182 5.512 93.3902 5.104 93.1342 4.776C92.8782 4.448 92.5582 4.2 92.1742 4.032C91.7902 3.864 91.3742 3.776 90.9262 3.768C90.4862 3.752 90.0742 3.816 89.6902 3.96C89.3062 4.096 88.9862 4.312 88.7302 4.608C88.4742 4.896 88.3462 5.256 88.3462 5.688V7.812C88.3462 7.98 88.3942 8.108 88.4902 8.196C88.5862 8.276 88.6942 8.316 88.8142 8.316C88.9342 8.316 89.0422 8.276 89.1382 8.196C89.2342 8.108 89.2822 7.98 89.2822 7.812V6ZM82.4422 6.3C82.4662 5.764 82.4342 5.332 82.3462 5.004C82.2582 4.668 82.1382 4.416 81.9862 4.248C81.8422 4.072 81.6782 3.964 81.4942 3.924C81.3102 3.876 81.1382 3.872 80.9782 3.912C80.8182 3.944 80.6822 4.008 80.5702 4.104C80.4662 4.192 80.4142 4.28 80.4142 4.368L81.0742 5.688C81.2502 5.472 81.4182 5.352 81.5782 5.328C81.7462 5.304 81.8942 5.34 82.0222 5.436C82.1502 5.532 82.2502 5.664 82.3222 5.832C82.4022 5.992 82.4422 6.148 82.4422 6.3ZM113.981 23.124C114.805 23.124 115.569 22.996 116.273 22.74C116.985 22.484 117.637 22.144 118.229 21.72C118.821 21.296 119.353 20.808 119.825 20.256C120.297 19.696 120.713 19.116 121.073 18.516C121.433 17.908 121.733 17.3 121.973 16.692C122.213 16.076 122.397 15.5 122.525 14.964C122.773 13.9 122.901 12.896 122.909 11.952C122.917 11.008 122.841 10.124 122.681 9.3C122.529 8.468 122.313 7.7 122.033 6.996C121.753 6.292 121.445 5.652 121.109 5.076C120.773 4.5 120.429 3.992 120.077 3.552C119.725 3.112 119.405 2.744 119.117 2.448C118.829 2.152 118.585 1.928 118.385 1.776C118.193 1.624 118.089 1.548 118.073 1.548C118.081 1.548 118.173 1.644 118.349 1.836C118.525 2.02 118.741 2.292 118.997 2.652C119.253 3.012 119.533 3.452 119.837 3.972C120.141 4.492 120.425 5.084 120.689 5.748C120.953 6.404 121.177 7.128 121.361 7.92C121.545 8.704 121.649 9.548 121.673 10.452C121.705 11.348 121.633 12.296 121.457 13.296C121.281 14.296 120.965 15.336 120.509 16.416C120.381 16.712 120.209 17.056 119.993 17.448C119.785 17.832 119.533 18.232 119.237 18.648C118.941 19.064 118.605 19.472 118.229 19.872C117.853 20.272 117.437 20.632 116.981 20.952C116.533 21.264 116.045 21.516 115.517 21.708C114.997 21.908 114.441 22.008 113.849 22.008H101.405L101.777 23.124H113.981ZM113.717 21C114.301 21 114.877 20.86 115.445 20.58C116.021 20.292 116.565 19.896 117.077 19.392C117.589 18.888 118.057 18.288 118.481 17.592C118.913 16.896 119.277 16.14 119.573 15.324C119.869 14.5 120.089 13.632 120.233 12.72C120.385 11.808 120.433 10.88 120.377 9.936C120.329 8.992 120.169 8.052 119.897 7.116C119.625 6.172 119.221 5.26 118.685 4.38C118.237 3.66 117.745 3.052 117.209 2.556C116.681 2.052 116.173 1.648 115.685 1.344C115.205 1.04 114.781 0.819999 114.413 0.683999C114.053 0.547999 113.821 0.48 113.717 0.48H101.249L100.277 3.408C100.437 3.256 100.633 3.144 100.865 3.072C101.097 3 101.337 2.968 101.585 2.976C101.841 2.984 102.093 3.036 102.341 3.132C102.589 3.228 102.809 3.368 103.001 3.552C103.201 3.728 103.361 3.952 103.481 4.224C103.609 4.488 103.673 4.8 103.673 5.16V16.416C103.673 16.856 103.609 17.244 103.481 17.58C103.361 17.908 103.201 18.184 103.001 18.408C102.809 18.632 102.589 18.804 102.341 18.924C102.093 19.044 101.841 19.112 101.585 19.128C101.337 19.144 101.097 19.108 100.865 19.02C100.633 18.924 100.437 18.78 100.277 18.588L101.069 21H113.717ZM113.297 18.18C113.097 18.324 112.825 18.444 112.481 18.54C112.137 18.628 111.761 18.68 111.353 18.696C110.945 18.704 110.533 18.676 110.117 18.612C109.701 18.54 109.321 18.416 108.977 18.24C108.641 18.056 108.361 17.816 108.137 17.52C107.921 17.224 107.813 16.856 107.813 16.416V5.16C107.813 4.8 107.901 4.484 108.077 4.212C108.253 3.932 108.485 3.7 108.773 3.516C109.069 3.324 109.405 3.18 109.781 3.084C110.157 2.98 110.545 2.924 110.945 2.916C111.345 2.908 111.737 2.944 112.121 3.024C112.513 3.104 112.869 3.232 113.189 3.408C113.725 3.68 114.185 4.076 114.569 4.596C114.953 5.108 115.265 5.7 115.505 6.372C115.753 7.044 115.929 7.772 116.033 8.556C116.145 9.34 116.193 10.136 116.177 10.944C116.169 11.744 116.097 12.532 115.961 13.308C115.825 14.076 115.633 14.784 115.385 15.432C115.145 16.08 114.849 16.644 114.497 17.124C114.145 17.604 113.745 17.956 113.297 18.18ZM108.725 16.416C108.725 16.512 108.745 16.62 108.785 16.74C108.833 16.852 108.897 16.964 108.977 17.076C109.057 17.18 109.157 17.268 109.277 17.34C109.397 17.412 109.533 17.448 109.685 17.448V5.736C109.685 5.456 109.801 5.228 110.033 5.052C110.265 4.868 110.553 4.744 110.897 4.68C111.249 4.608 111.625 4.6 112.025 4.656C112.433 4.704 112.809 4.824 113.153 5.016C113.505 5.2 113.797 5.46 114.029 5.796C114.261 6.124 114.377 6.536 114.377 7.032C114.377 6.528 114.297 6.088 114.137 5.712C113.977 5.328 113.761 5.004 113.489 4.74C113.225 4.476 112.925 4.268 112.589 4.116C112.253 3.964 111.905 3.864 111.545 3.816C111.193 3.76 110.849 3.756 110.513 3.804C110.177 3.852 109.873 3.948 109.601 4.092C109.337 4.228 109.125 4.412 108.965 4.644C108.805 4.868 108.725 5.132 108.725 5.436V16.416ZM102.761 6.18C102.793 5.652 102.769 5.228 102.689 4.908C102.609 4.588 102.497 4.352 102.353 4.2C102.209 4.04 102.045 3.948 101.861 3.924C101.685 3.892 101.517 3.9 101.357 3.948C101.205 3.988 101.073 4.056 100.961 4.152C100.857 4.248 100.805 4.34 100.805 4.428L101.453 5.736C101.605 5.552 101.757 5.452 101.909 5.436C102.069 5.42 102.209 5.448 102.329 5.52C102.457 5.592 102.561 5.692 102.641 5.82C102.721 5.948 102.761 6.068 102.761 6.18ZM136.817 23.124H154.613V16.104L153.665 15.468V22.008H136.445L136.817 23.124ZM142.841 16.884V13.068C142.841 12.764 142.909 12.512 143.045 12.312C143.181 12.104 143.349 11.948 143.549 11.844C143.757 11.74 143.977 11.688 144.209 11.688C144.449 11.688 144.669 11.74 144.869 11.844C145.077 11.948 145.249 12.104 145.385 12.312C145.521 12.512 145.589 12.764 145.589 13.068V14.88L147.401 13.068V7.812L145.589 6V7.812C145.589 8.124 145.521 8.384 145.385 8.592C145.249 8.792 145.077 8.944 144.869 9.048C144.669 9.144 144.449 9.192 144.209 9.192C143.977 9.192 143.757 9.14 143.549 9.036C143.349 8.932 143.181 8.78 143.045 8.58C142.909 8.372 142.841 8.112 142.841 7.8V5.316C142.841 4.876 142.953 4.496 143.177 4.176C143.409 3.848 143.709 3.584 144.077 3.384C144.453 3.176 144.873 3.036 145.337 2.964C145.801 2.884 146.269 2.876 146.741 2.94C147.213 2.996 147.665 3.128 148.097 3.336C148.529 3.536 148.897 3.812 149.201 4.164C149.513 4.516 149.737 4.948 149.873 5.46C150.009 5.972 150.013 6.568 149.885 7.248L152.777 5.316V0.48H136.289L135.305 3.456C135.465 3.264 135.661 3.128 135.893 3.048C136.133 2.96 136.381 2.924 136.637 2.94C136.893 2.948 137.145 3.008 137.393 3.12C137.649 3.224 137.877 3.38 138.077 3.588C138.277 3.788 138.437 4.032 138.557 4.32C138.685 4.608 138.749 4.94 138.749 5.316V16.884C138.749 17.3 138.685 17.656 138.557 17.952C138.437 18.24 138.277 18.476 138.077 18.66C137.877 18.844 137.649 18.98 137.393 19.068C137.145 19.148 136.893 19.18 136.637 19.164C136.381 19.148 136.133 19.092 135.893 18.996C135.661 18.892 135.465 18.752 135.305 18.576L136.109 21H152.777V14.88L149.885 12.948C150.357 13.748 150.617 14.468 150.665 15.108C150.713 15.748 150.617 16.308 150.377 16.788C150.137 17.268 149.781 17.668 149.309 17.988C148.845 18.3 148.333 18.536 147.773 18.696C147.221 18.856 146.653 18.94 146.069 18.948C145.485 18.948 144.953 18.872 144.473 18.72C143.993 18.568 143.601 18.34 143.297 18.036C142.993 17.724 142.841 17.34 142.841 16.884ZM144.677 13.068C144.677 12.9 144.629 12.772 144.533 12.684C144.437 12.596 144.329 12.552 144.209 12.552C144.089 12.552 143.981 12.596 143.885 12.684C143.789 12.772 143.741 12.9 143.741 13.068V16.884C143.741 17.068 143.769 17.22 143.825 17.34C143.881 17.46 143.953 17.556 144.041 17.628C144.137 17.7 144.237 17.752 144.341 17.784C144.453 17.808 144.565 17.82 144.677 17.82V13.068ZM149.249 13.572V9.66L148.301 8.712V13.344L146.765 14.88H147.941L149.249 13.572ZM154.613 6V1.428L153.665 0.947999V5.688L151.337 7.248H152.741L154.613 6ZM144.677 6C144.677 5.696 144.781 5.44 144.989 5.232C145.197 5.024 145.457 4.872 145.769 4.776C146.089 4.672 146.429 4.62 146.789 4.62C147.157 4.62 147.497 4.672 147.809 4.776C148.129 4.872 148.393 5.024 148.601 5.232C148.809 5.44 148.913 5.696 148.913 6C148.913 5.512 148.785 5.104 148.529 4.776C148.273 4.448 147.953 4.2 147.569 4.032C147.185 3.864 146.769 3.776 146.321 3.768C145.881 3.752 145.469 3.816 145.085 3.96C144.701 4.096 144.381 4.312 144.125 4.608C143.869 4.896 143.741 5.256 143.741 5.688V7.812C143.741 7.98 143.789 8.108 143.885 8.196C143.981 8.276 144.089 8.316 144.209 8.316C144.329 8.316 144.437 8.276 144.533 8.196C144.629 8.108 144.677 7.98 144.677 7.812V6ZM137.837 6.3C137.861 5.764 137.829 5.332 137.741 5.004C137.653 4.668 137.533 4.416 137.381 4.248C137.237 4.072 137.073 3.964 136.889 3.924C136.705 3.876 136.533 3.872 136.373 3.912C136.213 3.944 136.077 4.008 135.965 4.104C135.861 4.192 135.809 4.28 135.809 4.368L136.469 5.688C136.645 5.472 136.813 5.352 136.973 5.328C137.141 5.304 137.289 5.34 137.417 5.436C137.545 5.532 137.645 5.664 137.717 5.832C137.797 5.992 137.837 6.148 137.837 6.3ZM157.184 23.124H173.468V16.02L172.544 15.408V22.008H156.812L157.184 23.124ZM156.476 21H171.608V14.784L168.848 12.948C169.312 13.732 169.584 14.44 169.664 15.072C169.752 15.704 169.704 16.26 169.52 16.74C169.344 17.212 169.064 17.608 168.68 17.928C168.304 18.248 167.88 18.488 167.408 18.648C166.936 18.808 166.452 18.892 165.956 18.9C165.46 18.9 165.008 18.82 164.6 18.66C164.192 18.5 163.856 18.26 163.592 17.94C163.328 17.62 163.196 17.22 163.196 16.74V5.16C163.196 4.8 163.256 4.488 163.376 4.224C163.504 3.952 163.668 3.728 163.868 3.552C164.068 3.368 164.292 3.232 164.54 3.144C164.788 3.048 165.04 2.996 165.296 2.988C165.552 2.98 165.796 3.016 166.028 3.096C166.26 3.168 166.456 3.28 166.616 3.432L165.632 0.48H156.656L155.672 3.432C155.92 3.2 156.236 3.06 156.62 3.012C157.004 2.956 157.38 3 157.748 3.144C158.116 3.28 158.432 3.516 158.696 3.852C158.96 4.188 159.092 4.624 159.092 5.16V16.74C159.092 17.364 158.96 17.856 158.696 18.216C158.432 18.576 158.116 18.824 157.748 18.96C157.38 19.088 157.004 19.116 156.62 19.044C156.236 18.972 155.92 18.82 155.672 18.588L156.476 21ZM164.132 16.74C164.132 16.86 164.16 16.98 164.216 17.1C164.272 17.22 164.344 17.328 164.432 17.424C164.528 17.512 164.632 17.588 164.744 17.652C164.856 17.708 164.968 17.736 165.08 17.736V5.712C165.08 5.336 165.184 5.092 165.392 4.98C165.608 4.86 165.876 4.828 166.196 4.884C166.524 4.932 166.876 5.04 167.252 5.208C167.636 5.368 167.992 5.536 168.32 5.712C168.656 5.888 168.94 6.048 169.172 6.192C169.412 6.328 169.544 6.396 169.568 6.396L167.996 1.68L166.748 1.056L167.996 4.8C167.844 4.656 167.644 4.516 167.396 4.38C167.148 4.236 166.88 4.12 166.592 4.032C166.304 3.944 166.012 3.892 165.716 3.876C165.428 3.852 165.164 3.888 164.924 3.984C164.692 4.08 164.5 4.244 164.348 4.476C164.204 4.7 164.132 5.012 164.132 5.412V16.74ZM158.168 6.396C158.2 5.828 158.172 5.372 158.084 5.028C158.004 4.684 157.888 4.424 157.736 4.248C157.592 4.064 157.428 3.952 157.244 3.912C157.06 3.864 156.884 3.86 156.716 3.9C156.556 3.94 156.42 4.008 156.308 4.104C156.204 4.192 156.152 4.28 156.152 4.368L156.824 5.712C157.016 5.472 157.192 5.344 157.352 5.328C157.52 5.304 157.664 5.344 157.784 5.448C157.904 5.544 157.996 5.684 158.06 5.868C158.124 6.052 158.156 6.228 158.156 6.396H158.168ZM196.559 21.612L196.115 20.28L195.623 21.756C195.255 22.036 194.839 22.24 194.375 22.368C193.919 22.496 193.447 22.564 192.959 22.572C192.471 22.588 191.983 22.552 191.495 22.464C191.015 22.384 190.567 22.268 190.151 22.116C189.743 21.972 189.387 21.8 189.083 21.6C188.787 21.408 188.579 21.208 188.459 21C188.795 21.568 189.219 22.04 189.731 22.416C190.243 22.8 190.783 23.092 191.351 23.292C191.927 23.492 192.507 23.604 193.091 23.628C193.683 23.652 194.223 23.592 194.711 23.448C195.199 23.304 195.611 23.076 195.947 22.764C196.283 22.46 196.487 22.076 196.559 21.612ZM186.047 23.124L186.563 21.948L185.999 20.256L185.423 22.008H175.667L176.039 23.124H186.047ZM188.459 0.48H175.511L174.527 3.42C174.775 3.188 175.091 3.048 175.475 3C175.859 2.952 176.235 3 176.603 3.144C176.971 3.28 177.287 3.516 177.551 3.852C177.815 4.188 177.947 4.624 177.947 5.16V17.124C177.947 17.652 177.815 18.08 177.551 18.408C177.287 18.728 176.971 18.948 176.603 19.068C176.235 19.188 175.859 19.208 175.475 19.128C175.091 19.048 174.775 18.868 174.527 18.588L175.331 21H184.679L185.483 18.588C185.219 18.868 184.891 19.048 184.499 19.128C184.115 19.208 183.739 19.188 183.371 19.068C183.003 18.948 182.687 18.728 182.423 18.408C182.167 18.08 182.039 17.652 182.039 17.124V11.916H186.671C186.887 11.916 187.103 11.932 187.319 11.964C187.535 11.988 187.727 12.08 187.895 12.24C188.063 12.4 188.199 12.66 188.303 13.02C188.407 13.372 188.459 13.872 188.459 14.52V18.588C188.459 19.028 188.563 19.424 188.771 19.776C188.979 20.12 189.255 20.416 189.599 20.664C189.943 20.912 190.335 21.108 190.775 21.252C191.223 21.396 191.679 21.484 192.143 21.516C192.615 21.548 193.079 21.52 193.535 21.432C193.991 21.352 194.407 21.208 194.783 21L195.587 18.588C195.347 18.868 195.055 19.072 194.711 19.2C194.367 19.328 194.035 19.348 193.715 19.26C193.395 19.164 193.119 18.948 192.887 18.612C192.663 18.268 192.551 17.772 192.551 17.124C192.551 16.412 192.547 15.808 192.539 15.312C192.531 14.816 192.507 14.4 192.467 14.064C192.427 13.72 192.363 13.44 192.275 13.224C192.187 13 192.059 12.804 191.891 12.636C191.731 12.468 191.527 12.312 191.279 12.168C191.031 12.016 190.723 11.84 190.355 11.64C190.859 11.368 191.291 11 191.651 10.536C192.019 10.072 192.311 9.556 192.527 8.988C192.751 8.412 192.903 7.804 192.983 7.164C193.063 6.516 193.067 5.876 192.995 5.244C192.923 4.612 192.775 4.012 192.551 3.444C192.335 2.868 192.039 2.36 191.663 1.92C191.287 1.48 190.831 1.132 190.295 0.875999C189.767 0.612 189.155 0.48 188.459 0.48ZM192.071 0.972C192.567 1.348 192.971 1.824 193.283 2.4C193.603 2.968 193.835 3.588 193.979 4.26C194.131 4.932 194.195 5.628 194.171 6.348C194.155 7.068 194.051 7.764 193.859 8.436C193.675 9.108 193.407 9.732 193.055 10.308C192.711 10.884 192.287 11.36 191.783 11.736C192.071 11.92 192.315 12.08 192.515 12.216C192.723 12.352 192.891 12.5 193.019 12.66C193.147 12.82 193.247 13.008 193.319 13.224C193.391 13.44 193.443 13.72 193.475 14.064C193.507 14.4 193.523 14.816 193.523 15.312C193.531 15.808 193.535 16.412 193.535 17.124C193.535 17.492 193.591 17.768 193.703 17.952C193.823 18.136 193.951 18.228 194.087 18.228C194.223 18.228 194.347 18.136 194.459 17.952C194.579 17.768 194.639 17.492 194.639 17.124C194.639 16.412 194.635 15.808 194.627 15.312C194.627 14.816 194.615 14.4 194.591 14.064C194.567 13.728 194.531 13.456 194.483 13.248C194.435 13.04 194.363 12.864 194.267 12.72C194.179 12.568 194.063 12.436 193.919 12.324C193.775 12.204 193.599 12.068 193.391 11.916C193.863 11.356 194.247 10.748 194.543 10.092C194.847 9.436 195.059 8.768 195.179 8.088C195.299 7.4 195.323 6.712 195.251 6.024C195.187 5.336 195.027 4.68 194.771 4.056C194.515 3.432 194.163 2.856 193.715 2.328C193.267 1.8 192.719 1.348 192.071 0.972ZM182.951 17.124C182.951 17.492 182.999 17.768 183.095 17.952C183.199 18.136 183.311 18.228 183.431 18.228C183.551 18.228 183.659 18.136 183.755 17.952C183.859 17.768 183.911 17.492 183.911 17.124V13.764H186.671C186.887 13.764 187.055 13.792 187.175 13.848C187.295 13.904 187.383 13.972 187.439 14.052C187.495 14.124 187.527 14.204 187.535 14.292C187.543 14.38 187.547 14.456 187.547 14.52C187.547 14.328 187.543 14.132 187.535 13.932C187.527 13.732 187.495 13.552 187.439 13.392C187.383 13.224 187.295 13.088 187.175 12.984C187.055 12.88 186.887 12.828 186.671 12.828H182.951V17.124ZM182.039 9.468V5.16C182.039 4.8 182.115 4.488 182.267 4.224C182.419 3.952 182.619 3.724 182.867 3.54C183.115 3.348 183.399 3.204 183.719 3.108C184.039 3.004 184.371 2.94 184.715 2.916C185.059 2.892 185.399 2.908 185.735 2.964C186.079 3.012 186.391 3.096 186.671 3.216C187.135 3.416 187.519 3.712 187.823 4.104C188.135 4.488 188.367 4.912 188.519 5.376C188.671 5.832 188.747 6.304 188.747 6.792C188.747 7.28 188.671 7.724 188.519 8.124C188.367 8.516 188.135 8.84 187.823 9.096C187.519 9.344 187.135 9.468 186.671 9.468H182.039ZM183.911 8.556V5.688C183.911 5.464 183.999 5.28 184.175 5.136C184.359 4.984 184.583 4.872 184.847 4.8C185.119 4.728 185.411 4.692 185.723 4.692C186.043 4.692 186.335 4.728 186.599 4.8C186.871 4.872 187.095 4.984 187.271 5.136C187.455 5.28 187.547 5.464 187.547 5.688C187.547 5.312 187.431 4.988 187.199 4.716C186.975 4.436 186.691 4.22 186.347 4.068C186.011 3.916 185.643 3.824 185.243 3.792C184.851 3.76 184.483 3.8 184.139 3.912C183.803 4.016 183.519 4.196 183.287 4.452C183.063 4.7 182.951 5.024 182.951 5.424V8.556H183.911ZM177.035 6.252C177.067 5.708 177.039 5.272 176.951 4.944C176.863 4.616 176.747 4.368 176.603 4.2C176.459 4.032 176.295 3.932 176.111 3.9C175.935 3.868 175.767 3.876 175.607 3.924C175.455 3.964 175.323 4.032 175.211 4.128C175.107 4.224 175.055 4.32 175.055 4.416L175.691 5.688C175.835 5.472 175.987 5.352 176.147 5.328C176.307 5.304 176.451 5.34 176.579 5.436C176.715 5.524 176.823 5.648 176.903 5.808C176.991 5.96 177.035 6.108 177.035 6.252ZM197.824 23.124H204.856L205.36 21.96L204.796 20.268L204.208 22.008H197.452L197.824 23.124ZM218.788 23.124L219.292 21.96L218.728 20.268L218.152 22.008H208.648L209.02 23.124H218.788ZM197.116 21H203.476L204.28 18.588C204.056 18.844 203.768 19.012 203.416 19.092C203.072 19.164 202.752 19.14 202.456 19.02C202.16 18.9 201.94 18.676 201.796 18.348C201.652 18.012 201.672 17.56 201.856 16.992L202.612 14.7H209.212L209.968 16.992C210.104 17.368 210.16 17.696 210.136 17.976C210.112 18.248 210.032 18.472 209.896 18.648C209.768 18.816 209.6 18.94 209.392 19.02C209.184 19.1 208.964 19.136 208.732 19.128C208.508 19.12 208.284 19.072 208.06 18.984C207.844 18.888 207.66 18.756 207.508 18.588L208.312 21H217.408L218.212 18.588C217.972 18.844 217.688 19.012 217.36 19.092C217.032 19.164 216.704 19.14 216.376 19.02C216.048 18.9 215.74 18.676 215.452 18.348C215.172 18.012 214.956 17.56 214.804 16.992L210.748 4.812C210.628 4.468 210.588 4.172 210.628 3.924C210.668 3.676 210.76 3.48 210.904 3.336C211.048 3.184 211.232 3.076 211.456 3.012C211.68 2.948 211.912 2.924 212.152 2.94C212.392 2.948 212.628 2.996 212.86 3.084C213.092 3.164 213.288 3.276 213.448 3.42L212.464 0.48H201.832L200.848 3.42C201.008 3.276 201.2 3.164 201.424 3.084C201.648 2.996 201.876 2.948 202.108 2.94C202.34 2.924 202.56 2.948 202.768 3.012C202.976 3.076 203.148 3.184 203.284 3.336C203.428 3.48 203.524 3.676 203.572 3.924C203.62 4.172 203.592 4.468 203.488 4.812L199.432 16.992C199.216 17.56 198.976 18.012 198.712 18.348C198.456 18.676 198.192 18.9 197.92 19.02C197.648 19.14 197.372 19.164 197.092 19.092C196.82 19.012 196.56 18.844 196.312 18.588L197.116 21ZM203.728 17.904L204.184 16.536H208.828L208.528 15.612H203.296L202.528 17.904H203.728ZM216.832 16.992L213.064 5.688C212.928 5.312 212.904 5.068 212.992 4.956C213.08 4.844 213.232 4.816 213.448 4.872C213.672 4.92 213.936 5.024 214.24 5.184C214.544 5.344 214.84 5.512 215.128 5.688C215.424 5.864 215.684 6.024 215.908 6.168C216.14 6.304 216.292 6.372 216.364 6.372L214.804 1.692L213.556 1.068L214.804 4.812C214.78 4.788 214.708 4.744 214.588 4.68C214.468 4.608 214.32 4.532 214.144 4.452C213.968 4.364 213.772 4.28 213.556 4.2C213.348 4.12 213.14 4.06 212.932 4.02C212.724 3.972 212.532 3.952 212.356 3.96C212.18 3.96 212.036 4.004 211.924 4.092C211.82 4.18 211.756 4.316 211.732 4.5C211.716 4.684 211.768 4.936 211.888 5.256L215.8 16.992C215.928 17.392 216.08 17.692 216.256 17.892C216.432 18.092 216.584 18.192 216.712 18.192C216.84 18.192 216.924 18.092 216.964 17.892C217.004 17.692 216.96 17.392 216.832 16.992ZM208.396 12.264H203.428L205.912 4.812L208.396 12.264ZM204.712 11.364H205.912L206.512 9.564L205.912 7.764L204.712 11.364ZM201.796 6.372C202.076 5.764 202.26 5.292 202.348 4.956C202.436 4.612 202.464 4.364 202.432 4.212C202.4 4.052 202.328 3.968 202.216 3.96C202.104 3.952 201.984 3.98 201.856 4.044C201.736 4.1 201.628 4.172 201.532 4.26C201.436 4.348 201.388 4.408 201.388 4.44C201.652 4.528 201.832 4.652 201.928 4.812C202.024 4.964 202.072 5.136 202.072 5.328C202.072 5.512 202.04 5.696 201.976 5.88C201.912 6.064 201.852 6.228 201.796 6.372ZM236.817 16.656L235.869 16.02V22.008H221.109L221.481 23.124H236.817V16.656ZM225.609 16.932L234.969 2.892V0.48H220.773L219.969 5.58L222.309 6.168C221.925 5.568 221.693 5.06 221.613 4.644C221.541 4.228 221.613 3.892 221.829 3.636C222.045 3.372 222.405 3.184 222.909 3.072C223.413 2.952 224.053 2.892 224.829 2.892H230.433L219.969 18.588L220.773 21H234.969V15.396L231.261 12.948C231.877 13.612 232.305 14.212 232.545 14.748C232.785 15.284 232.897 15.764 232.881 16.188C232.865 16.604 232.753 16.964 232.545 17.268C232.345 17.564 232.109 17.812 231.837 18.012C231.573 18.204 231.305 18.348 231.033 18.444C230.769 18.54 230.569 18.588 230.433 18.588H225.609C225.217 18.588 225.021 18.464 225.021 18.216C225.021 17.96 225.217 17.532 225.609 16.932ZM236.817 1.464L235.869 0.995999V3.084L226.629 16.932C226.413 17.228 226.313 17.452 226.329 17.604C226.345 17.748 226.425 17.82 226.569 17.82C226.713 17.82 226.893 17.748 227.109 17.604C227.333 17.452 227.545 17.228 227.745 16.932L236.817 3.324V1.464ZM228.165 4.74L228.801 3.78H224.829C224.053 3.78 223.493 3.844 223.149 3.972C222.813 4.1 222.633 4.312 222.609 4.608C222.593 4.896 222.705 5.276 222.945 5.748C223.193 6.22 223.521 6.796 223.929 7.476L220.389 6.588L220.773 7.608L225.609 8.82C225.609 8.812 225.541 8.748 225.405 8.628C225.277 8.508 225.113 8.352 224.913 8.16C224.721 7.968 224.513 7.752 224.289 7.512C224.073 7.264 223.877 7.012 223.701 6.756C223.525 6.5 223.389 6.252 223.293 6.012C223.197 5.772 223.177 5.56 223.233 5.376C223.297 5.184 223.453 5.032 223.701 4.92C223.949 4.8 224.325 4.74 224.829 4.74H228.165ZM239.379 23.124H249.387L249.903 21.96L249.339 20.244L248.751 22.008H239.007L239.379 23.124ZM251.571 23.124H260.967L261.483 21.96L260.907 20.244L260.319 22.008H251.199L251.571 23.124ZM238.671 21H248.019L248.823 18.588C248.479 18.932 248.123 19.14 247.755 19.212C247.395 19.276 247.055 19.248 246.735 19.128C246.415 19 246.139 18.796 245.907 18.516C245.675 18.236 245.519 17.92 245.439 17.568C245.359 17.208 245.375 16.832 245.487 16.44C245.607 16.048 245.859 15.676 246.243 15.324L249.423 12.144L252.063 17.424C252.239 17.736 252.335 18.012 252.351 18.252C252.375 18.484 252.339 18.676 252.243 18.828C252.147 18.98 252.011 19.092 251.835 19.164C251.659 19.228 251.467 19.252 251.259 19.236C251.051 19.22 250.839 19.16 250.623 19.056C250.415 18.944 250.227 18.788 250.059 18.588L250.863 21H259.587L260.391 18.588C260.143 18.892 259.871 19.088 259.575 19.176C259.287 19.264 258.991 19.26 258.687 19.164C258.391 19.06 258.095 18.864 257.799 18.576C257.503 18.28 257.231 17.896 256.983 17.424L252.699 8.856L256.395 5.16C256.931 4.624 257.395 4.184 257.787 3.84C258.179 3.496 258.527 3.252 258.831 3.108C259.135 2.964 259.407 2.92 259.647 2.976C259.895 3.032 260.143 3.184 260.391 3.432L259.407 0.48H251.043L250.059 3.432C250.219 3.264 250.439 3.14 250.719 3.06C250.999 2.98 251.283 2.944 251.571 2.952C251.867 2.96 252.139 3.012 252.387 3.108C252.643 3.204 252.827 3.344 252.939 3.528C253.059 3.712 253.083 3.94 253.011 4.212C252.947 4.484 252.735 4.8 252.375 5.16L245.391 12.144V5.16C245.391 4.8 245.451 4.484 245.571 4.212C245.699 3.94 245.863 3.712 246.063 3.528C246.263 3.344 246.487 3.204 246.735 3.108C246.991 3.012 247.243 2.96 247.491 2.952C247.747 2.944 247.991 2.98 248.223 3.06C248.463 3.14 248.663 3.264 248.823 3.432L247.839 0.48H238.851L237.867 3.432C238.027 3.264 238.223 3.14 238.455 3.06C238.695 2.98 238.939 2.944 239.187 2.952C239.443 2.96 239.695 3.012 239.943 3.108C240.191 3.204 240.411 3.344 240.603 3.528C240.803 3.712 240.963 3.94 241.083 4.212C241.211 4.484 241.275 4.8 241.275 5.16V17.424C241.275 17.736 241.211 18.012 241.083 18.252C240.963 18.484 240.803 18.676 240.603 18.828C240.411 18.98 240.191 19.092 239.943 19.164C239.695 19.228 239.443 19.252 239.187 19.236C238.939 19.22 238.695 19.16 238.455 19.056C238.223 18.944 238.027 18.788 237.867 18.588L238.671 21ZM257.991 17.424C258.167 17.712 258.347 17.932 258.531 18.084C258.723 18.228 258.879 18.3 258.999 18.3C259.127 18.3 259.203 18.228 259.227 18.084C259.259 17.932 259.203 17.712 259.059 17.424L254.883 9.072L258.231 5.724C258.591 5.34 258.955 5.092 259.323 4.98C259.699 4.86 260.063 4.824 260.415 4.872C260.775 4.912 261.115 5.012 261.435 5.172C261.755 5.332 262.043 5.5 262.299 5.676C262.555 5.852 262.771 6.008 262.947 6.144C263.123 6.28 263.243 6.348 263.307 6.348L261.747 1.668L260.499 1.044L261.747 4.8C261.531 4.664 261.323 4.528 261.123 4.392C260.931 4.256 260.735 4.144 260.535 4.056C260.343 3.968 260.139 3.916 259.923 3.9C259.707 3.876 259.467 3.912 259.203 4.008C258.939 4.096 258.647 4.256 258.327 4.488C258.007 4.712 257.647 5.024 257.247 5.424L253.743 8.928L257.991 17.424ZM249.543 14.412L249.099 13.548L246.783 15.864C246.511 16.136 246.343 16.372 246.279 16.572C246.223 16.764 246.239 16.9 246.327 16.98C246.415 17.052 246.559 17.056 246.759 16.992C246.959 16.928 247.183 16.772 247.431 16.524L249.543 14.412ZM246.243 5.424V10.032L247.155 9.072V5.724C247.155 5.292 247.239 4.984 247.407 4.8C247.583 4.616 247.775 4.508 247.983 4.476C248.199 4.444 248.391 4.468 248.559 4.548C248.735 4.62 248.823 4.704 248.823 4.8C248.823 4.664 248.759 4.528 248.631 4.392C248.503 4.256 248.343 4.144 248.151 4.056C247.959 3.968 247.751 3.916 247.527 3.9C247.311 3.876 247.107 3.912 246.915 4.008C246.723 4.096 246.563 4.256 246.435 4.488C246.307 4.712 246.243 5.024 246.243 5.424ZM240.363 6.348C240.419 5.788 240.407 5.34 240.327 5.004C240.255 4.668 240.143 4.412 239.991 4.236C239.847 4.06 239.683 3.956 239.499 3.924C239.315 3.884 239.139 3.888 238.971 3.936C238.811 3.976 238.675 4.044 238.563 4.14C238.451 4.236 238.395 4.332 238.395 4.428L239.043 5.724C239.227 5.452 239.399 5.304 239.559 5.28C239.727 5.248 239.871 5.288 239.991 5.4C240.111 5.504 240.203 5.652 240.267 5.844C240.339 6.028 240.371 6.196 240.363 6.348ZM250.875 5.16C251.227 4.8 251.459 4.528 251.571 4.344C251.691 4.152 251.735 4.024 251.703 3.96C251.671 3.896 251.587 3.876 251.451 3.9C251.323 3.924 251.183 3.972 251.031 4.044C250.887 4.108 250.755 4.18 250.635 4.26C250.523 4.332 250.467 4.388 250.467 4.428C250.691 4.396 250.855 4.4 250.959 4.44C251.063 4.472 251.123 4.528 251.139 4.608C251.155 4.688 251.135 4.78 251.079 4.884C251.023 4.98 250.955 5.072 250.875 5.16ZM269.74 23.124H279.94L280.456 21.948L279.892 20.268L279.316 22.008H269.368L269.74 23.124ZM269.032 21H278.572L279.376 18.588C279.08 18.9 278.732 19.108 278.332 19.212C277.94 19.316 277.564 19.324 277.204 19.236C276.852 19.148 276.552 18.968 276.304 18.696C276.056 18.424 275.932 18.068 275.932 17.628V12.9L281.596 4.404C281.82 4.076 282.08 3.8 282.376 3.576C282.672 3.352 282.976 3.192 283.288 3.096C283.6 3 283.908 2.98 284.212 3.036C284.516 3.084 284.792 3.216 285.04 3.432L284.056 0.48H277.48L276.496 3.432C276.656 3.288 276.852 3.18 277.084 3.108C277.324 3.036 277.568 3 277.816 3C278.064 3 278.3 3.032 278.524 3.096C278.756 3.16 278.948 3.252 279.1 3.372C279.252 3.492 279.348 3.64 279.388 3.816C279.428 3.992 279.384 4.188 279.256 4.404L275.26 10.404L272.26 4.404C272.156 4.188 272.132 3.992 272.188 3.816C272.252 3.64 272.368 3.492 272.536 3.372C272.704 3.252 272.908 3.16 273.148 3.096C273.396 3.032 273.648 3 273.904 3C274.16 3 274.408 3.036 274.648 3.108C274.888 3.18 275.092 3.288 275.26 3.432L274.276 0.48H264.82L263.836 3.432C264.084 3.216 264.372 3.084 264.7 3.036C265.036 2.98 265.372 3 265.708 3.096C266.044 3.192 266.36 3.352 266.656 3.576C266.96 3.8 267.2 4.076 267.376 4.404L271.624 12.9V17.628C271.624 18.068 271.5 18.424 271.252 18.696C271.012 18.968 270.716 19.148 270.364 19.236C270.02 19.324 269.652 19.316 269.26 19.212C268.868 19.108 268.524 18.9 268.228 18.588L269.032 21ZM276.844 13.224V17.628C276.844 17.884 276.944 18.076 277.144 18.204C277.344 18.332 277.564 18.396 277.804 18.396V13.536L283.036 5.688C283.26 5.312 283.532 5.068 283.852 4.956C284.172 4.844 284.508 4.816 284.86 4.872C285.22 4.92 285.576 5.024 285.928 5.184C286.28 5.344 286.6 5.512 286.888 5.688C287.184 5.864 287.428 6.024 287.62 6.168C287.82 6.304 287.94 6.372 287.98 6.372L286.408 1.656L285.148 1.02L286.408 4.8C286.248 4.664 286.06 4.532 285.844 4.404C285.636 4.268 285.412 4.156 285.172 4.068C284.94 3.98 284.696 3.92 284.44 3.888C284.192 3.856 283.94 3.872 283.684 3.936C283.436 4 283.192 4.12 282.952 4.296C282.72 4.472 282.5 4.724 282.292 5.052L276.844 13.224ZM275.932 7.608L274.972 5.688C274.828 5.4 274.736 5.168 274.696 4.992C274.656 4.816 274.644 4.68 274.66 4.584C274.684 4.488 274.728 4.424 274.792 4.392C274.856 4.36 274.92 4.344 274.984 4.344C275.056 4.344 275.12 4.356 275.176 4.38C275.232 4.396 275.26 4.404 275.26 4.404C275.26 4.356 275.196 4.292 275.068 4.212C274.94 4.132 274.784 4.064 274.6 4.008C274.424 3.944 274.24 3.904 274.048 3.888C273.856 3.864 273.696 3.884 273.568 3.948C273.44 4.012 273.364 4.132 273.34 4.308C273.324 4.476 273.4 4.724 273.568 5.052L275.26 8.448L275.932 7.608ZM267.196 6.372C267.028 5.828 266.84 5.388 266.632 5.052C266.432 4.708 266.224 4.448 266.008 4.272C265.8 4.096 265.596 3.984 265.396 3.936C265.196 3.888 265.016 3.884 264.856 3.924C264.704 3.956 264.58 4.02 264.484 4.116C264.396 4.212 264.352 4.308 264.352 4.404L265 5.688C265.304 5.376 265.58 5.208 265.828 5.184C266.076 5.152 266.292 5.196 266.476 5.316C266.66 5.436 266.812 5.6 266.932 5.808C267.052 6.016 267.14 6.204 267.196 6.372ZM277.42 5.688C277.548 5.528 277.64 5.376 277.696 5.232C277.752 5.08 277.772 4.964 277.756 4.884C277.748 4.804 277.708 4.772 277.636 4.788C277.564 4.804 277.468 4.892 277.348 5.052L277.024 4.404C277.024 4.316 277.088 4.228 277.216 4.14C277.344 4.052 277.484 3.984 277.636 3.936C277.796 3.888 277.944 3.872 278.08 3.888C278.224 3.896 278.308 3.964 278.332 4.092C278.364 4.212 278.316 4.4 278.188 4.656C278.06 4.912 277.804 5.256 277.42 5.688Z" fill="black"/>
</svg>
